<svg t="1582188029905" class="icon" viewBox="0 0 1024 1024" version="1.1" xmlns="http://www.w3.org/2000/svg" p-id="1166" xmlns:xlink="http://www.w3.org/1999/xlink" width="200" height="200"><defs><style type="text/css"></style></defs><path d="M1024 358.156C1024 195.698 892.3 64 729.844 64 643.482 64 565.814 101.218 512 160.49 458.186 101.218 380.518 64 294.156 64 131.698 64 0 195.698 0 358.156 0 444.518 37.218 522.186 96.49 576L96 576l320 320c32 32 64 64 96 64s64-32 96-64l320-320-0.49 0C986.782 522.186 1024 444.518 1024 358.156zM841.468 481.232 517.49 805.49c-1.678 1.678-3.532 3.532-5.49 5.48-1.96-1.95-3.814-3.802-5.49-5.48L182.532 481.234C147.366 449.306 128 405.596 128 358.156 128 266.538 202.538 192 294.156 192c47.44 0 91.15 19.366 123.076 54.532L512 350.912l94.768-104.378C638.696 211.366 682.404 192 729.844 192 821.462 192 896 266.538 896 358.156 896 405.596 876.632 449.306 841.468 481.232z" p-id="1167"></path></svg>
